<?xml version="1.0" encoding="utf-8"?>
<!-- Generator: Adobe Illustrator 16.0.0, SVG Export Plug-In . SVG Version: 6.00 Build 0)  -->
<!DOCTYPE svg PUBLIC "-//W3C//DTD SVG 1.1//EN" "http://www.w3.org/Graphics/SVG/1.1/DTD/svg11.dtd">
<svg version="1.1" id="Artwork" xmlns="http://www.w3.org/2000/svg" xmlns:xlink="http://www.w3.org/1999/xlink" x="0px" y="0px"
	 width="512px" height="512px" viewBox="0 0 512 512" enable-background="new 0 0 512 512" xml:space="preserve">
<g>
	<path d="M268.633,355.834c0-1.559-1.275-2.834-2.835-2.834h-60.473c-1.559,0-2.834,1.275-2.834,2.834v9.519
		c0,1.559-1.275,2.834-2.834,2.834h-43.22c-1.559,0-2.834,1.275-2.834,2.834v12.169c0,1.559,1.275,2.834,2.834,2.834h158.249
		c1.56,0,2.835-1.275,2.835-2.834v-12.169c0-1.559-1.275-2.834-2.835-2.834h-43.217c-1.56,0-2.835-1.275-2.835-2.834V355.834z"/>
	<path d="M416.097,41.688H55.025c-12.563,0-22.783,10.221-22.783,22.784v250.921c0,12.563,10.221,22.783,22.783,22.783h361.072
		c12.563,0,22.783-10.221,22.783-22.783V64.472C438.88,51.909,428.66,41.688,416.097,41.688z M235.56,318.504
		c-5.668,0-10.264-4.596-10.264-10.266s4.596-10.266,10.264-10.266c5.67,0,10.268,4.596,10.268,10.266
		S241.23,318.504,235.56,318.504z M421.638,286.922H49.484V64.472c0-3.003,2.537-5.54,5.541-5.54h361.072
		c3.002,0,5.541,2.537,5.541,5.54V286.922z"/>
	<path d="M375.374,111.13c-3.511-2.682-8.532-2.008-11.213,1.502l-58.876,77.099l-69.997-37.237
		c-6.347-3.376-14.503-1.375-18.565,4.557l-46.362,67.7c-0.397,0.493-1.708,1.184-2.296,1.232h-67.459c-4.418,0-8,3.582-8,8
		s3.582,8,8,8h67.459c5.729,0,12.236-3.431,15.473-8.157l45.548-66.508l69.676,37.066c6.169,3.282,14.322,1.501,18.56-4.051
		l59.557-77.99C379.558,118.832,378.885,113.811,375.374,111.13z"/>
</g>
</svg>
