<?xml version="1.0" encoding="utf-8"?>
<!-- Generator: Adobe Illustrator 16.0.0, SVG Export Plug-In . SVG Version: 6.00 Build 0)  -->
<!DOCTYPE svg PUBLIC "-//W3C//DTD SVG 1.1//EN" "http://www.w3.org/Graphics/SVG/1.1/DTD/svg11.dtd">
<svg version="1.1" id="Artwork" xmlns="http://www.w3.org/2000/svg" xmlns:xlink="http://www.w3.org/1999/xlink" x="0px" y="0px"
	 width="512px" height="512px" viewBox="0 0 512 512" enable-background="new 0 0 512 512" xml:space="preserve">
<g>
	<path d="M280.36,390.953c0-1.559-1.275-2.834-2.835-2.834h-60.473c-1.559,0-2.834,1.275-2.834,2.834v9.519
		c0,1.559-1.275,2.834-2.834,2.834h-43.22c-1.559,0-2.834,1.275-2.834,2.834v12.169c0,1.559,1.275,2.834,2.834,2.834h158.249
		c1.56,0,2.835-1.275,2.835-2.834v-12.169c0-1.559-1.275-2.834-2.835-2.834h-43.217c-1.56,0-2.835-1.275-2.835-2.834V390.953z"/>
	<path d="M427.824,76.523H66.752c-12.563,0-22.783,10.221-22.783,22.784v250.921c0,12.563,10.221,22.783,22.783,22.783h361.072
		c12.563,0,22.783-10.221,22.783-22.783V99.308C450.607,86.744,440.387,76.523,427.824,76.523z M66.752,93.768h361.072
		c3.002,0,5.541,2.537,5.541,5.54v222.45H61.211V99.308C61.211,96.305,63.748,93.768,66.752,93.768z M237.023,343.074
		c0-5.67,4.596-10.266,10.264-10.266c5.67,0,10.268,4.596,10.268,10.266s-4.598,10.266-10.268,10.266
		C241.619,353.34,237.023,348.744,237.023,343.074z"/>
	<g>
		<g>
			<path d="M190.547,294.737c-1.212,0-2.412-0.218-3.556-0.664c-3.509-1.366-5.964-4.663-6.569-8.819l-2.511-17.248h-17.577
				c-7.262,0-13.169-5.908-13.169-13.169v-80.651c0-7.262,5.907-13.169,13.169-13.169h19.544c4.143,0,7.5,3.358,7.5,7.5
				s-3.357,7.5-7.5,7.5h-17.713v76.99h16.563c6.817,0,12.926,5.284,13.908,12.03l1.54,10.578l21.283-17.341
				c3.744-3.051,9.97-5.267,14.801-5.267h11.284c4.143,0,7.5,3.358,7.5,7.5s-3.357,7.5-7.5,7.5h-11.284
				c-1.402,0-4.239,1.009-5.325,1.895l-27.144,22.115C195.599,293.805,193.049,294.737,190.547,294.737z"/>
		</g>
		<g>
			<path d="M304.002,264.439c-2.534,0-5.03-0.942-7.219-2.725l-27.141-22.115c-1.087-0.886-3.925-1.896-5.327-1.896h-51.26
				c-7.262,0-13.169-5.908-13.169-13.169v-80.651c0-7.262,5.907-13.169,13.169-13.169h121.187c7.262,0,13.169,5.908,13.169,13.169
				v80.651c0,7.262-5.907,13.169-13.169,13.169h-17.576l-2.511,17.247C313.342,260.537,309.167,264.439,304.002,264.439z
				 M214.886,222.704h49.429c4.831,0,11.056,2.215,14.802,5.266l21.283,17.342l1.54-10.579c0.982-6.746,7.091-12.029,13.907-12.029
				h16.563v-76.99H214.886V222.704z"/>
		</g>
	</g>
</g>
</svg>
