<?xml version="1.0" encoding="utf-8"?>
<!-- Generator: Adobe Illustrator 16.0.0, SVG Export Plug-In . SVG Version: 6.00 Build 0)  -->
<!DOCTYPE svg PUBLIC "-//W3C//DTD SVG 1.1//EN" "http://www.w3.org/Graphics/SVG/1.1/DTD/svg11.dtd">
<svg version="1.1" id="Artwork" xmlns="http://www.w3.org/2000/svg" xmlns:xlink="http://www.w3.org/1999/xlink" x="0px" y="0px"
	 width="512px" height="512px" viewBox="0 0 512 512" enable-background="new 0 0 512 512" xml:space="preserve">
<g>
	<path d="M327.749,402.157h-43.217c-1.56,0-2.835-1.275-2.835-2.834v-9.519c0-1.559-1.275-2.834-2.835-2.834H218.39
		c-1.559,0-2.834,1.275-2.834,2.834v9.519c0,1.559-1.275,2.834-2.834,2.834h-43.22c-1.559,0-2.834,1.275-2.834,2.834v12.169
		c0,1.559,1.275,2.834,2.834,2.834h158.248c1.56,0,2.835-1.275,2.835-2.834v-12.169
		C330.584,403.433,329.309,402.157,327.749,402.157z"/>
	<path d="M299.965,166.144c-7.557,0-14.382,2.301-21.256,5.21c-0.256,0.108-0.891,0.156-1.348-0.47
		c-10.396-15.035-27.75-24.367-46.333-24.367c-27.551,0-50.002,20.622-54.803,46.806c-0.141,0.767,0,1.969-1.748,2.083
		c-19.511,3.78-33.449,20.513-33.449,41.113c0,19.392,13.043,36.197,31.77,41.018c2.627,0.892,5.34,1.344,8.072,1.344h118.582
		c1.258,0,2.535-0.105,3.885-0.32c29.699-1.758,52.887-26.324,52.887-56.158C356.223,191.382,330.984,166.144,299.965,166.144z
		 M301.949,261.366l-0.549,0.027l-0.543,0.098c-0.547,0.098-1.006,0.146-1.406,0.146H180.87c-0.891,0-1.789-0.161-2.676-0.479
		l-0.852-0.258c-11.229-2.771-19.07-12.799-19.07-24.381c0-13.853,11.345-26.584,25.119-25.122c2.144,0.228,6.084,0.127,7.608-1.396
		s1.239-5.082,1.013-7.226c-2.27-21.392,17.502-39.014,39.016-39.014c15,0,30.387,8.142,35.275,22.34
		c0.802,2.328,2.328,6.227,4.696,6.899s5.878-1.795,7.784-3.354c5.826-4.767,13.643-6.258,21.182-6.258
		c21.512,0,39.016,17.502,39.016,39.014C338.98,243.214,322.715,260.329,301.949,261.366z"/>
	<path d="M429.161,75.374H68.089c-12.563,0-22.783,10.221-22.783,22.784v250.921c0,12.563,10.221,22.783,22.783,22.783h361.072
		c12.563,0,22.783-10.221,22.783-22.783V98.158C451.944,85.595,441.724,75.374,429.161,75.374z M248.625,352.19
		c-5.668,0-10.264-4.596-10.264-10.266s4.596-10.266,10.264-10.266c5.67,0,10.267,4.596,10.267,10.266
		S254.294,352.19,248.625,352.19z M434.702,320.608H62.548V98.158c0-3.003,2.537-5.54,5.541-5.54h361.072
		c3.002,0,5.541,2.537,5.541,5.54V320.608z"/>
</g>
</svg>
