<?xml version="1.0" encoding="utf-8"?>
<!-- Generator: Adobe Illustrator 16.0.0, SVG Export Plug-In . SVG Version: 6.00 Build 0)  -->
<!DOCTYPE svg PUBLIC "-//W3C//DTD SVG 1.1//EN" "http://www.w3.org/Graphics/SVG/1.1/DTD/svg11.dtd">
<svg version="1.1" id="Artwork" xmlns="http://www.w3.org/2000/svg" xmlns:xlink="http://www.w3.org/1999/xlink" x="0px" y="0px"
	 width="512px" height="512px" viewBox="0 0 512 512" enable-background="new 0 0 512 512" xml:space="preserve">
<g>
	<path d="M369.482,260.34c-2.247-4.119-6.991-5.865-10.599-3.898c-2.427,1.323-3.713,3.993-3.613,6.852l-0.188-0.342
		c-2.563-4.701-7.978-6.694-12.093-4.449c-2.836,1.546-4.313,4.698-4.12,8.047c-2.711-1.975-6.163-2.439-8.998-0.893
		c-2.269,1.237-3.663,3.507-4.034,6.082l-14.4-26.403c-2.563-4.701-7.978-6.694-12.094-4.449c-4.114,2.244-5.372,7.875-2.808,12.576
		l28.311,51.91l-7.418-5.343c-2.894-2.084-6.32-2.295-8.952-0.859c-1.212,0.661-2.256,1.671-3.006,3.001
		c-2.372,4.229-0.875,10.124,3.354,13.165c0,0,37.273,27.005,42.098,29.476c4.639,2.374,9.272,3.312,13.682,0.907l0.505-0.275
		l25.365-13.834c7.608-4.149,9.794-14.821,4.881-23.831L369.482,260.34z"/>
	<path d="M439.94,179.918H69.677c-10.73,0-19.459,8.729-19.459,19.461v88.07c0,10.73,8.729,19.461,19.459,19.461h219.536
		c3.082,0,6.414-13.755,6.668-14.902c0.415-1.875,0.162-2.34-0.963-2.34H141.464c0,0-2.396-0.388-2.396-4.013
		c0-21.75,0-62.841,0-85.125c0-3.333,3.146-3.369,3.146-3.369H439.94c1.201,0,2.217,1.016,2.217,2.218v88.07
		c0,1.202-1.016,2.219-2.217,2.219h-34.27c0,0-4.876-0.327-3.51,2.921c1.236,2.938,4.517,9.692,5.845,11.335
		c2.414,2.986,5.665,2.986,5.665,2.986h26.27c10.73,0,19.461-8.73,19.461-19.461v-88.07
		C459.401,188.648,450.671,179.918,439.94,179.918z"/>
</g>
<g>
	<path fill="#FFFFFF" d="M91.633,224.984c0.774-1.568,2.041-1.568,2.814,0l3.663,7.421c0.774,1.568,2.823,3.057,4.554,3.309
		l8.189,1.19c1.73,0.251,2.122,1.456,0.87,2.676l-5.926,5.776c-1.252,1.221-2.035,3.63-1.74,5.354l1.399,8.156
		c0.295,1.724-0.729,2.468-2.277,1.654l-7.325-3.851c-1.548-0.814-4.081-0.814-5.628,0l-7.325,3.851
		c-1.548,0.813-2.572,0.069-2.277-1.654l1.399-8.156c0.296-1.724-0.487-4.133-1.739-5.354l-5.926-5.776
		c-1.252-1.221-0.861-2.425,0.87-2.676l8.189-1.19c1.73-0.251,3.78-1.74,4.554-3.309L91.633,224.984z"/>
</g>
</svg>
