<?xml version="1.0" encoding="utf-8"?>
<!-- Generator: Adobe Illustrator 16.0.0, SVG Export Plug-In . SVG Version: 6.00 Build 0)  -->
<!DOCTYPE svg PUBLIC "-//W3C//DTD SVG 1.1//EN" "http://www.w3.org/Graphics/SVG/1.1/DTD/svg11.dtd">
<svg version="1.1" id="Artwork" xmlns="http://www.w3.org/2000/svg" xmlns:xlink="http://www.w3.org/1999/xlink" x="0px" y="0px"
	 width="512px" height="512px" viewBox="0 0 512 512" enable-background="new 0 0 512 512" xml:space="preserve">
<g>
	<path d="M444.15,176.722c-19.731,13.491-31.149,21.332-31.149,21.332s-1.942,1.353-1.941-0.272c0.015-25.125,0-115.264,0-115.264
		c0-11.383-9.26-20.644-20.645-20.644H158.97c-11.383,0-20.641,9.261-20.641,20.644c0,0,0,84.323,0,112.431
		c0,1.906-1.799,0.39-1.799,0.39s-14.547-10.135-32.439-22.437c-7.285-5.009-17.24,0.047-16.389,15.276v232.607
		c0,12.25,9.965,22.216,22.215,22.216H439.47c12.252,0,22.217-9.966,22.217-22.216V188.177
		C461.687,176.697,452.317,171.138,444.15,176.722z M154.778,82.517c0-2.272,1.92-4.191,4.191-4.191h231.445
		c2.273,0,4.195,1.919,4.195,4.191c0,0,0,94.886,0,126.514c0,1.75-1.169,2.734-1.169,2.734l-109.774,77.121
		c-3.459,2.43-10.002,2.435-13.465,0.012l-114.426-80.095c0,0-0.998-0.792-0.998-2.792
		C154.778,174.965,154.778,82.517,154.778,82.517z M104.153,416.104V192.749l156.613,109.625c0.98,0.782,1.061,0.999,0.96,1.311
		c-0.095,0.294-0.532,0.622-1.595,1.385L104.153,416.104z M117.843,426.55l151.828-108.078c3.412-2.429,9.865-2.434,13.281-0.012
		l152.398,108.09H117.843z M445.237,413.392l-152.77-108.349c-0.598-0.425-1.182-0.825-1.182-1.169c0-0.271,1.043-0.968,1.836-1.527
		l152.115-106.865V413.392z"/>
	<path d="M227.761,127.947h97.463c1.903,0,3.461-1.558,3.461-3.461v-10.321c0-1.903-1.558-3.461-3.461-3.461h-97.463
		c-1.903,0-3.461,1.558-3.461,3.461v10.321C224.3,126.39,225.857,127.947,227.761,127.947z"/>
	<path d="M184.519,183.947h183.947c1.903,0,3.461-1.558,3.461-3.461v-10.321c0-1.903-1.558-3.461-3.461-3.461H184.519
		c-1.903,0-3.461,1.558-3.461,3.461v10.321C181.058,182.39,182.615,183.947,184.519,183.947z"/>
</g>
</svg>
