<?xml version="1.0" encoding="utf-8"?>
<!-- Generator: Adobe Illustrator 16.0.0, SVG Export Plug-In . SVG Version: 6.00 Build 0)  -->
<!DOCTYPE svg PUBLIC "-//W3C//DTD SVG 1.1//EN" "http://www.w3.org/Graphics/SVG/1.1/DTD/svg11.dtd">
<svg version="1.1" id="Artwork" xmlns="http://www.w3.org/2000/svg" xmlns:xlink="http://www.w3.org/1999/xlink" x="0px" y="0px"
	 width="512px" height="512px" viewBox="0 0 512 512" enable-background="new 0 0 512 512" xml:space="preserve">
<path d="M253.163,158.958c0-3.118-2.551-5.669-5.67-5.669H128.651c-3.119,0-5.67,2.551-5.67,5.669v67.184
	c0,3.118,2.551,5.669,5.67,5.669h118.842c3.119,0,5.67-2.551,5.67-5.669V158.958z"/>
<path d="M126,350.118c0,2.338,1.914,4.252,4.252,4.252h242.092c2.338,0,4.252-1.914,4.252-4.252v-8.739
	c0-2.338-1.914-4.252-4.252-4.252H130.252c-2.338,0-4.252,1.914-4.252,4.252V350.118z"/>
<path d="M126,288.839c0,2.339,1.913,4.252,4.252,4.252h242.092c2.339,0,4.252-1.913,4.252-4.252V280.1
	c0-2.339-1.913-4.252-4.252-4.252H130.252c-2.339,0-4.252,1.913-4.252,4.252V288.839z"/>
<path d="M290.591,166.28c0,2.338,1.914,4.252,4.252,4.252h77.309c2.338,0,4.252-1.914,4.252-4.252v-8.739
	c0-2.338-1.914-4.252-4.252-4.252h-77.309c-2.338,0-4.252,1.914-4.252,4.252V166.28z"/>
<path d="M290.591,227.559c0,2.338,1.913,4.252,4.252,4.252h77.309c2.339,0,4.252-1.914,4.252-4.252v-8.739
	c0-2.338-1.913-4.252-4.252-4.252h-77.309c-2.339,0-4.252,1.914-4.252,4.252V227.559z"/>
<path d="M479.632,157.88c-3.813-4.709-9.703-7.409-16.16-7.409h-13.419c0,0-5.04-0.107-5.04,4.002c0,2.31,0,6.93,0,9.239
	c0,4.069,5.04,4.002,5.04,4.002h13.419c1.248,0,2.229,0.36,2.76,1.017s0.68,1.689,0.42,2.91c0,0-28.771,109.212-38.59,145.972
	c-0.117,0.434-0.885,0.246-0.885-0.291c-0.033-51.875,0-205.755,0-205.755c0-12.839-10.445-23.285-23.283-23.285H96.669
	c-12.84,0-23.285,10.446-23.285,23.285v281.738c0,12.839,10.445,23.285,23.285,23.285h307.225c7.748,0,14.619-3.808,18.854-9.646
	c2.73-1.988,4.68-5.637,5.811-10.949l54.959-220.768C484.86,168.912,483.444,162.589,479.632,157.88z M409.935,393.306
	c0,3.332-2.711,6.042-6.041,6.042H96.669c-3.332,0-6.043-2.71-6.043-6.042V111.567c0-3.275,2.768-6.042,6.043-6.042h307.225
	c3.275,0,6.041,2.767,6.041,6.042V393.306z"/>
</svg>
