<?xml version="1.0" encoding="utf-8"?>
<!-- Generator: Adobe Illustrator 16.0.0, SVG Export Plug-In . SVG Version: 6.00 Build 0)  -->
<!DOCTYPE svg PUBLIC "-//W3C//DTD SVG 1.1//EN" "http://www.w3.org/Graphics/SVG/1.1/DTD/svg11.dtd">
<svg version="1.1" id="Artwork" xmlns="http://www.w3.org/2000/svg" xmlns:xlink="http://www.w3.org/1999/xlink" x="0px" y="0px"
	 width="512px" height="512px" viewBox="0 0 512 512" enable-background="new 0 0 512 512" xml:space="preserve">
<g>
	<path d="M353.534,398.98h-43.219c-1.559,0-2.834-1.275-2.834-2.835v-9.519c0-1.559-1.275-2.834-2.834-2.834h-60.474
		c-1.56,0-2.835,1.276-2.835,2.834v9.519c0,1.56-1.275,2.835-2.835,2.835h-43.219c-1.56,0-2.835,1.275-2.835,2.835v12.168
		c0,1.56,1.275,2.835,2.834,2.835h158.25c1.559,0,2.834-1.275,2.834-2.835v-12.168C356.368,400.256,355.093,398.98,353.534,398.98z"
		/>
	<path d="M454.945,72.197H93.873c-12.563,0-22.783,10.221-22.783,22.784v250.921c0,12.563,10.221,22.783,22.783,22.783h361.072
		c12.563,0,22.783-10.221,22.783-22.783V94.981C477.729,82.418,467.508,72.197,454.945,72.197z M274.408,349.014
		c-5.668,0-10.264-4.596-10.264-10.266s4.596-10.266,10.264-10.266c5.67,0,10.268,4.596,10.268,10.266
		S280.078,349.014,274.408,349.014z M460.486,317.432H88.332V94.981c0-3.003,2.537-5.54,5.541-5.54h361.072
		c3.002,0,5.541,2.537,5.541,5.54V317.432z"/>
	<path d="M316.479,186.083h-1.424v-8.057c0-22.413-18.233-40.648-40.646-40.648s-40.646,18.235-40.646,40.648v8.057h-1.424
		c-2.709,0-3.683,1.274-3.683,2.831v77.822c0,1.558,1.274,2.831,2.83,2.831h85.846c1.556,0,2.83-1.273,2.83-2.831v-77.822
		C320.162,187.357,319.216,186.083,316.479,186.083z M282.708,234.169c0,4.583-3.716,8.299-8.299,8.299
		c-4.584,0-8.299-3.716-8.299-8.299v-15.534c0-4.583,3.715-8.299,8.299-8.299c4.583,0,8.299,3.716,8.299,8.299V234.169z
		 M304.068,186.083h-59.319v-8.057c0-16.355,13.305-29.661,29.66-29.661s29.659,13.306,29.659,29.661V186.083z"/>
</g>
</svg>
