<?xml version="1.0" encoding="utf-8"?>
<!-- Generator: Adobe Illustrator 16.0.0, SVG Export Plug-In . SVG Version: 6.00 Build 0)  -->
<!DOCTYPE svg PUBLIC "-//W3C//DTD SVG 1.1//EN" "http://www.w3.org/Graphics/SVG/1.1/DTD/svg11.dtd">
<svg version="1.1" id="Artwork" xmlns="http://www.w3.org/2000/svg" xmlns:xlink="http://www.w3.org/1999/xlink" x="0px" y="0px"
	 width="512px" height="512px" viewBox="0 0 512 512" enable-background="new 0 0 512 512" xml:space="preserve">
<g>
	<path d="M360.246,403.307h-43.217c-1.56,0-2.835-1.275-2.835-2.834v-9.519c0-1.559-1.275-2.834-2.835-2.834h-60.473
		c-1.56,0-2.835,1.275-2.835,2.834v9.519c0,1.559-1.275,2.834-2.835,2.834h-43.219c-1.56,0-2.835,1.275-2.835,2.834v12.169
		c0,1.559,1.275,2.834,2.835,2.834h158.248c1.56,0,2.835-1.275,2.835-2.834v-12.169
		C363.081,404.582,361.806,403.307,360.246,403.307z"/>
	<path d="M461.658,76.523H100.586c-12.563,0-22.783,10.221-22.783,22.784v250.921c0,12.563,10.221,22.783,22.783,22.783h361.072
		c12.563,0,22.783-10.221,22.783-22.783V99.308C484.441,86.744,474.221,76.523,461.658,76.523z M281.121,353.34
		c-5.668,0-10.264-4.596-10.264-10.266s4.596-10.266,10.264-10.266c5.67,0,10.268,4.596,10.268,10.266
		S286.791,353.34,281.121,353.34z M467.199,321.758H95.045V99.308c0-3.003,2.537-5.54,5.541-5.54h361.072
		c3.002,0,5.541,2.537,5.541,5.54V321.758z"/>
	<path d="M314.103,212.447l-48.566-31.637c-1.441-0.854-2.619-0.182-2.619,1.493v63.392c0,1.674,1.178,2.346,2.619,1.493
		l48.566-31.637C315.542,214.697,315.542,213.3,314.103,212.447z"/>
	<path d="M281.122,147.271c-36.794,0-66.729,29.934-66.729,66.728c0,36.793,29.935,66.728,66.729,66.728
		s66.729-29.934,66.729-66.728C347.851,177.205,317.916,147.271,281.122,147.271z M281.122,266.727
		c-29.074,0-52.729-23.653-52.729-52.728s23.654-52.728,52.729-52.728s52.729,23.654,52.729,52.728S310.196,266.727,281.122,266.727
		z"/>
</g>
</svg>
