<?xml version="1.0" encoding="utf-8"?>
<!-- Generator: Adobe Illustrator 16.0.0, SVG Export Plug-In . SVG Version: 6.00 Build 0)  -->
<!DOCTYPE svg PUBLIC "-//W3C//DTD SVG 1.1//EN" "http://www.w3.org/Graphics/SVG/1.1/DTD/svg11.dtd">
<svg version="1.1" id="Artwork" xmlns="http://www.w3.org/2000/svg" xmlns:xlink="http://www.w3.org/1999/xlink" x="0px" y="0px"
	 width="512px" height="512px" viewBox="0 0 512 512" enable-background="new 0 0 512 512" xml:space="preserve">
<g>
	<path d="M415.872,123.99l-94.404-77.635c-7.816-6.432-21.344-11.279-31.465-11.279h-148.5c-12.838,0-23.285,10.445-23.285,23.285
		c0,0,0,212.941,0,281.92c0,4.25,2.303,3.052,2.953,2.365c3.037-3.211,12.341-12.665,12.341-12.665s1.95-1.701,1.95-5.951
		c0-64.916,0-265.669,0-265.669c0-3.275,2.768-6.041,6.041-6.041h148.5c2.516,0,7.768,5.874,7.768,8.518v70.682
		c0,12.84,10.445,23.285,23.283,23.285h87.725c1.6,0,4.311,1.099,4.311,4.974c0,0.059,0.01,218.841,0.01,218.841
		c0,3.332-2.711,6.041-6.043,6.041c0,0-166.845,0-220.458,0c-5.315,0-8.537,3.213-8.537,3.213s-7.913,7.673-10.238,10.51
		c-0.687,0.837-2.415,3.52,2.525,3.52c57.676,0,236.708,0,236.708,0c12.84,0,23.285-10.444,23.285-23.284V154.625
		C430.341,143.944,424.118,130.773,415.872,123.99z M321.054,137.561c-3.33,0-6.041-2.709-6.041-6.041V64.881l85.068,72.68H321.054z
		"/>
	<path d="M235.044,353.696c20.877,0,40.398-8.234,54.965-23.186c29.525-30.307,28.891-78.981-1.414-108.506
		c-14.41-14.041-33.424-21.773-53.541-21.773c-20.879,0-40.398,8.234-54.967,23.188c-29.523,30.303-28.889,78.979,1.414,108.506
		C195.911,345.964,214.929,353.696,235.044,353.696z M192.437,235.45c11.293-11.592,26.428-17.977,42.617-17.977
		c15.596,0,30.336,5.996,41.508,16.88c23.494,22.892,23.986,60.629,1.098,84.124c-11.295,11.592-26.43,17.977-42.615,17.977
		c-15.598,0-30.338-5.994-41.51-16.88C170.04,296.683,169.548,258.945,192.437,235.45z"/>
	<path d="M184.284,349.974c-5.299-2.693-8.803-6.048-11.371-8.633c-1.827-1.839-6.278-6.688-9.215-11.629
		c-0.312-0.526-1.14-1.35-2.543-0.086l-58.514,60.06c-2.229,2.288-2.182,5.981,0.104,8.21l15.256,14.922
		c2.287,2.229,5.982,2.184,8.209-0.105l58.004-59.535C185.794,351.596,185.459,350.571,184.284,349.974z"/>
</g>
</svg>
