<?xml version="1.0" encoding="utf-8"?>
<!-- Generator: Adobe Illustrator 16.0.0, SVG Export Plug-In . SVG Version: 6.00 Build 0)  -->
<!DOCTYPE svg PUBLIC "-//W3C//DTD SVG 1.1//EN" "http://www.w3.org/Graphics/SVG/1.1/DTD/svg11.dtd">
<svg version="1.1" id="Artwork" xmlns="http://www.w3.org/2000/svg" xmlns:xlink="http://www.w3.org/1999/xlink" x="0px" y="0px"
	 width="512px" height="512px" viewBox="0 0 512 512" enable-background="new 0 0 512 512" xml:space="preserve">
<g>
	<path d="M287.221,183.984c-13.495,0-26.114,5.323-35.532,14.99c-19.086,19.589-18.676,51.056,0.914,70.145
		c9.316,9.076,21.609,14.074,34.612,14.074c13.496,0,26.115-5.323,35.533-14.989c19.086-19.592,18.676-51.058-0.914-70.145
		C312.518,188.982,300.227,183.984,287.221,183.984z M312.221,257.947c-6.627,6.802-15.508,10.548-25.006,10.548
		c-9.149,0-17.8-3.518-24.356-9.905c-13.785-13.432-14.074-35.575-0.643-49.361c6.625-6.802,15.506-10.548,25.005-10.548
		c9.15,0,17.799,3.518,24.355,9.905C325.361,222.017,325.652,244.161,312.221,257.947z"/>
	<path d="M253.724,280.884c-3.287-1.671-5.461-3.752-7.055-5.356c-1.133-1.141-3.895-4.149-5.717-7.215
		c-0.193-0.326-0.707-0.837-1.578-0.053l-36.301,37.26c-1.383,1.419-1.354,3.711,0.064,5.093l9.465,9.258
		c1.418,1.383,3.711,1.354,5.092-0.065l35.986-36.935C254.659,281.89,254.452,281.254,253.724,280.884z"/>
	<path d="M363.419,75.181H175.435c-11.672,0-21.16,9.492-21.16,21.162v308.975c0,11.666,9.488,21.162,21.16,21.162h187.984
		c11.664,0,21.16-9.496,21.16-21.162V96.343C384.579,84.673,375.083,75.181,363.419,75.181z M246.239,96.765h46.375
		c2.213,0,4.01,1.794,4.01,4.012c0,2.215-1.797,4.009-4.01,4.009h-46.375c-2.217,0-4.008-1.794-4.008-4.009
		C242.231,98.559,244.022,96.765,246.239,96.765z M269.5,412c-5.799,0-10.5-4.701-10.5-10.5c0-5.799,4.701-10.5,10.5-10.5
		s10.5,4.701,10.5,10.5C280,407.299,275.299,412,269.5,412z M366.397,379.428c0,2.823-2.262,5.133-5.021,5.133H177.481
		c-2.76,0-5.021-2.31-5.021-5.133V122.684c0-2.823,2.262-5.132,5.021-5.132h183.895c2.76,0,5.021,2.309,5.021,5.132V379.428z"/>
</g>
</svg>
