<?xml version="1.0" encoding="utf-8"?>
<!-- Generator: Adobe Illustrator 16.0.0, SVG Export Plug-In . SVG Version: 6.00 Build 0)  -->
<!DOCTYPE svg PUBLIC "-//W3C//DTD SVG 1.1//EN" "http://www.w3.org/Graphics/SVG/1.1/DTD/svg11.dtd">
<svg version="1.1" id="Artwork" xmlns="http://www.w3.org/2000/svg" xmlns:xlink="http://www.w3.org/1999/xlink" x="0px" y="0px"
	 width="512px" height="512px" viewBox="0 0 512 512" enable-background="new 0 0 512 512" xml:space="preserve">
<g>
	<path d="M381.775,255.981h-79.906c-2.339,0-4.252,1.913-4.252,4.252v8.739c0,2.339,1.913,4.252,4.252,4.252h79.906
		c2.339,0,4.252-1.913,4.252-4.252v-8.739C386.027,257.894,384.114,255.981,381.775,255.981z"/>
	<path d="M311.031,205.623v-8.739c0-2.339-1.913-4.252-4.252-4.252H117.082c-2.339,0-4.252,1.913-4.252,4.252v8.739
		c0,2.339,1.913,4.252,4.252,4.252h189.697C309.118,209.875,311.031,207.961,311.031,205.623z"/>
	<path d="M381.775,319.331H192.078c-2.339,0-4.252,1.913-4.252,4.252v8.739c0,2.339,1.913,4.252,4.252,4.252h189.697
		c2.339,0,4.252-1.913,4.252-4.252v-8.739C386.027,321.244,384.114,319.331,381.775,319.331z"/>
	<path d="M443.685,79.119H98.267c-12.838,0-23.283,10.445-23.283,23.284v281.738c0,12.839,10.445,23.284,23.283,23.284h345.418
		c12.84,0,23.283-10.445,23.283-23.284V102.403C466.968,89.564,456.524,79.119,443.685,79.119z M236.136,108.429
		c0-2.923,2.393-5.315,5.314-5.315h31.871c2.922,0,5.314,2.392,5.314,5.315v9.994c0,2.923-2.393,5.315-5.314,5.315H241.45
		c-2.922,0-5.314-2.392-5.314-5.315V108.429z M170.7,108.429c0-2.923,2.393-5.315,5.314-5.315h31.869
		c2.924,0,5.314,2.392,5.314,5.315v9.994c0,2.923-2.391,5.315-5.314,5.315h-31.869c-2.922,0-5.314-2.392-5.314-5.315V108.429z
		 M106.921,108.429c0-2.923,2.393-5.315,5.314-5.315h31.869c2.924,0,5.314,2.392,5.314,5.315v9.994c0,2.923-2.391,5.315-5.314,5.315
		h-31.869c-2.922,0-5.314-2.392-5.314-5.315V108.429z M448.341,381.076c0,3.065-2.533,5.573-5.625,5.573H99.237
		c-3.094,0-5.625-2.508-5.625-5.573V148.948c0-3.065,2.531-5.573,5.625-5.573h343.479c3.092,0,5.625,2.508,5.625,5.573V381.076z"/>
</g>
</svg>
