<?xml version="1.0" encoding="utf-8"?>
<!-- Generator: Adobe Illustrator 16.0.0, SVG Export Plug-In . SVG Version: 6.00 Build 0)  -->
<!DOCTYPE svg PUBLIC "-//W3C//DTD SVG 1.1//EN" "http://www.w3.org/Graphics/SVG/1.1/DTD/svg11.dtd">
<svg version="1.1" id="Artwork" xmlns="http://www.w3.org/2000/svg" xmlns:xlink="http://www.w3.org/1999/xlink" x="0px" y="0px"
	 width="512px" height="512px" viewBox="0 0 512 512" enable-background="new 0 0 512 512" xml:space="preserve">
<path d="M307.628,290.616c-4.902,0-9.168,3.063-11.441,7.596v-0.69c0-9.494-6.736-17.19-15.048-17.19
	c-5.722,0-10.698,3.652-13.243,9.027c-2.545-5.375-7.519-9.027-13.243-9.027c-4.582,0-8.681,2.349-11.44,6.042v-53.316
	c0-9.494-6.736-17.19-15.046-17.19c-8.312,0-15.05,7.696-15.05,17.19v104.996l-7.008-14.611c-2.734-5.702-7.888-8.938-13.205-8.938
	c-2.444,0-4.927,0.688-7.221,2.12c-7.286,4.569-9.957,15.013-5.96,23.334l34.69,72.321c0.023,0.083,3.724,5.928,5.587,8.722
	c5.091,7.707,11.847,13.592,20.749,13.592h52.242c15.362,0,27.822-14.754,27.822-32.948v-95.965
	C320.813,297.36,314.909,290.616,307.628,290.616z"/>
<path d="M411.224,88.283H66.663c-13.014,0-23.6,10.59-23.6,23.597l0.001,229.647c0,13.016,10.585,23.597,23.6,23.597h102.222
	c0,0,6.422,0,4.963-4.644c-1.022-3.254-5.678-11.905-5.885-12.309c-1.905-3.719-6.909-3.327-6.909-3.327H86.031
	c-3.148,0-5.724-2.523-5.724-5.601V114.159c0-3.078,2.575-5.6,5.724-5.6h296.319c3.148,0,5.725,2.522,5.725,5.6v225.086
	c0,3.078-2.576,5.601-5.725,5.601h-39.41c0,0-7.954-0.809-7.954,6.003c0,2.068,0,6.206,0,8.273c0,6.003,8.449,6.003,8.449,6.003
	h67.788c13.009,0,23.598-10.581,23.598-23.597V111.88C434.821,98.873,424.232,88.283,411.224,88.283z M406.5,238
	c-6.351,0-11.5-5.149-11.5-11.5c0-6.352,5.149-11.5,11.5-11.5s11.5,5.148,11.5,11.5C418,232.851,412.851,238,406.5,238z"/>
</svg>
