<?xml version="1.0" encoding="utf-8"?>
<!-- Generator: Adobe Illustrator 16.0.0, SVG Export Plug-In . SVG Version: 6.00 Build 0)  -->
<!DOCTYPE svg PUBLIC "-//W3C//DTD SVG 1.1//EN" "http://www.w3.org/Graphics/SVG/1.1/DTD/svg11.dtd">
<svg version="1.1" id="Artwork" xmlns="http://www.w3.org/2000/svg" xmlns:xlink="http://www.w3.org/1999/xlink" x="0px" y="0px"
	 width="512px" height="512px" viewBox="0 0 512 512" enable-background="new 0 0 512 512" xml:space="preserve">
<g>
	<path d="M283.95,285.658c-4.525,0-8.467,2.828-10.566,7.015v-0.638c0-8.769-6.221-15.877-13.896-15.877
		c-5.289,0-9.883,3.373-12.232,8.338c-2.349-4.965-6.946-8.338-12.233-8.338c-4.231,0-8.017,2.169-10.567,5.58v-49.243
		c0-8.77-6.222-15.878-13.897-15.878c-7.675,0-13.896,7.108-13.896,15.878v96.816l-6.475-13.496
		c-2.525-5.266-7.284-8.255-12.195-8.255c-2.259,0-4.552,0.634-6.673,1.958c-6.727,4.22-9.195,13.866-5.5,21.554
		c0,0,32.409,68.042,37.408,75.375c4.806,7.05,10.732,12.03,18.955,12.03h48.252c14.188,0,25.697-13.628,25.697-30.431V299.57
		C296.13,291.887,290.677,285.658,283.95,285.658z"/>
	<path d="M324.108,42.563H136.124c-11.672,0-21.16,9.492-21.16,21.162V372.7c0,11.666,9.488,21.162,21.16,21.162h34.872
		c0,0,6.748,0,4.241-5.713c-3.994-9.104-10.474-22.357-15.285-31.864c-2.291-4.527-8.126-4.342-8.126-4.342h-13.655
		c-2.76,0-5.022-2.31-5.022-5.133V90.066c0-2.823,2.263-5.132,5.022-5.132h183.895c2.76,0,5.021,2.309,5.021,5.132V346.81
		c0,2.823-2.262,5.133-5.021,5.133h-5.236c0,0-6.526,0.148-6.526,8.005c0,6.477-0.026,25.525-0.026,25.908
		c0,8.005,7.554,8.005,7.554,8.005h6.278c11.664,0,21.16-9.496,21.16-21.162V63.726C345.269,52.055,335.772,42.563,324.108,42.563z
		 M253.304,72.168h-46.375c-2.217,0-4.008-1.794-4.008-4.009c0-2.218,1.791-4.012,4.008-4.012h46.375c2.213,0,4.01,1.794,4.01,4.012
		C257.313,70.374,255.517,72.168,253.304,72.168z"/>
</g>
</svg>
