<?xml version="1.0" encoding="utf-8"?>
<!-- Generator: Adobe Illustrator 16.0.0, SVG Export Plug-In . SVG Version: 6.00 Build 0)  -->
<!DOCTYPE svg PUBLIC "-//W3C//DTD SVG 1.1//EN" "http://www.w3.org/Graphics/SVG/1.1/DTD/svg11.dtd">
<svg version="1.1" id="Artwork" xmlns="http://www.w3.org/2000/svg" xmlns:xlink="http://www.w3.org/1999/xlink" x="0px" y="0px"
	 width="512px" height="512px" viewBox="0 0 512 512" enable-background="new 0 0 512 512" xml:space="preserve">
<g>
	<path d="M170.075,222.198h-23.702c-2.75,0-5,2.25-5,5v144.244c0,2.75,2.25,5,5,5h23.702c2.75,0,5-2.25,5-5V227.198
		C175.075,224.448,172.825,222.198,170.075,222.198z"/>
	<path d="M227.855,253.638h-23.701c-2.75,0-5,2.25-5,5v112.805c0,2.75,2.25,5,5,5h23.701c2.75,0,5-2.25,5-5V258.638
		C232.855,255.888,230.605,253.638,227.855,253.638z"/>
	<path d="M285.635,278.026h-23.701c-2.75,0-5,2.25-5,5v88.416c0,2.75,2.25,5,5,5h23.701c2.75,0,5-2.25,5-5v-88.416
		C290.635,280.276,288.385,278.026,285.635,278.026z"/>
	<path d="M343.414,309.367h-23.703c-2.75,0-5,2.25-5,5v57.075c0,2.75,2.25,5,5,5h23.703c2.75,0,5-2.25,5-5v-57.075
		C348.414,311.617,346.164,309.367,343.414,309.367z"/>
	<path d="M401.19,335.067h-23.699c-2.75,0-5,2.25-5,5v31.375c0,2.75,2.25,5,5,5h23.699c2.75,0,5-2.25,5-5v-31.375
		C406.19,337.317,403.94,335.067,401.19,335.067z"/>
	<path d="M446.49,88.283H101.072c-12.838,0-23.283,10.445-23.283,23.284v281.738c0,12.839,10.445,23.284,23.283,23.284H446.49
		c12.84,0,23.284-10.445,23.284-23.284V111.567C469.774,98.729,459.33,88.283,446.49,88.283z M238.942,117.594
		c0-2.923,2.393-5.315,5.314-5.315h31.87c2.923,0,5.314,2.392,5.314,5.315v9.994c0,2.923-2.392,5.315-5.314,5.315h-31.87
		c-2.922,0-5.314-2.392-5.314-5.315V117.594z M173.507,117.594c0-2.923,2.392-5.315,5.314-5.315h31.869
		c2.923,0,5.314,2.392,5.314,5.315v9.994c0,2.923-2.392,5.315-5.314,5.315h-31.869c-2.923,0-5.314-2.392-5.314-5.315V117.594z
		 M109.728,117.594c0-2.923,2.392-5.315,5.314-5.315h31.869c2.923,0,5.314,2.392,5.314,5.315v9.994c0,2.923-2.392,5.315-5.314,5.315
		h-31.869c-2.923,0-5.314-2.392-5.314-5.315V117.594z M451.146,390.241c0,3.065-2.533,5.573-5.625,5.573H102.043
		c-3.094,0-5.625-2.508-5.625-5.573V158.113c0-3.065,2.531-5.573,5.625-5.573h343.479c3.092,0,5.625,2.508,5.625,5.573V390.241z"/>
</g>
</svg>
